<svg xmlns="http://www.w3.org/2000/svg" width="511.908" height="463" viewBox="0 0 511.908 463"><defs><style>.a{fill:#fff;}.b{fill:#cce5f1;}.c{fill:#063963;}.d{fill:#ccc;}.e{fill:#e2c7b5;}.f{fill:#e0e0e0;}.g{fill:#a00000;}.h{fill:#333030;}.i{fill:#303333;}.j{fill:#99507e;}.k{fill:#bababa;}.l{fill:#0c0a0a;}.m{fill:#e3e1da;}.n{fill:#d9d9d9;}.o{fill:#ff9629;}.p{fill:#ea4033;}</style></defs><path class="a" d="M239.216,317.564l-1.57-2.287.893-.623-.5-.325,2.707-4.06,2.314,1.529Zm-6.279-9.135-3.14-4.574,2.287-1.57,3.14,4.574ZM247.58,304.9l-2.314-1.529,3.045-4.628,2.314,1.529Zm-22.425-7.89-3.14-4.574,2.287-1.57,3.14,4.574Zm30.1-3.668-2.3-1.529L256,287.182l2.314,1.529Zm-37.893-7.755-3.14-4.574,2.287-1.57,3.126,4.574Zm45.566-3.816-2.314-1.529,3.059-4.615,2.3,1.516Zm-53.416-7.606-3.126-4.574,2.274-1.556,3.14,4.561Zm61.035-3.952-2.3-1.529,3.045-4.628,2.314,1.529Zm-68.871-7.47-3.14-4.561,2.287-1.57,3.14,4.561Zm76.5-4.06-2.314-1.516,3.059-4.628,2.314,1.529Zm-84.339-7.322L190.7,246.8l2.287-1.57,3.14,4.561Zm92.026-4.236-2.517-1.57,3.045-4.615,2.368,1.516ZM185.909,239.9l-3.14-4.615,2.287-1.57,3.126,4.574Zm107.427-4.371-2.3-1.529,3.045-4.628,2.314,1.529Zm-115.263-7.01-3.14-4.574,2.287-1.57,3.126,4.574Zm122.868-4.561-2.314-1.516,3.059-4.628,2.3,1.529ZM170.2,217.066l-3.126-4.574,2.274-1.57,3.14,4.574ZM308.574,212.4l-2.219-1.475,3.045-4.615,2.314,1.516Zm-146.159-6.767-3.14-4.574,2.287-1.57,3.14,4.574Zm153.832-4.8-2.314-1.529,3.059-4.628,2.314,1.529Zm-161.668-6.618-3.14-4.561,2.287-1.57,3.126,4.561Zm169.274-4.94-2.314-1.516,3.045-4.628,2.314,1.529ZM146.662,182.8l-3.14-4.561,2.274-1.57,3.14,4.561Zm184.756-5.088-2.3-1.529,3.045-4.628,2.314,1.529Zm-192.605-6.334-3.126-4.561,2.274-1.57,3.14,4.574ZM339.1,166.154l-2.314-1.529L339.849,160l2.3,1.529Zm-208.074-6.2-3.14-4.52,2.287-1.57,3.14,4.574Zm215.693-5.413-2.3-1.529,3.045-4.615,2.314,1.516ZM123.2,148.507l-3.14-4.574,2.287-1.57,3.14,4.574Zm231.161-5.522-2.314-1.529,3.059-4.628,2.3,1.529Zm-239-5.9-3.14-4.574,2.287-1.556,3.126,4.561Zm246.63-5.67-2.314-1.516,3.045-4.628,2.314,1.529Zm-254.479-5.752-3.126-4.561,2.274-1.57,3.14,4.561Zm262.1-5.806-2.355-1.489,3.059-4.615,2.314,1.516ZM99.675,114.281l-3.086-4.561,2.287-1.57L102,112.711Zm277.567-5.941-2.314-1.529,3.045-4.628,2.314,1.529Zm-285.4-5.413L88.7,98.366l2.287-1.57,3.14,4.507Zm293.008-6.158-2.3-1.516,3.045-4.628,2.314,1.529ZM84,91.451l-3.14-4.574,2.287-1.57,3.126,4.574Zm308.558-6.239-2.382-1.5,3.059-4.628,2.3,1.529ZM76.168,80.029l-3.14-4.574,2.287-1.57,3.126,4.574Zm323.945-6.374-2.3-1.529,3.045-4.655L403.171,69ZM68.318,68.607,63.69,61.84H66.4l.108,1.353,1.029-.7,3.14,4.561ZM398.99,66.766h-5.549V64.059h5.549Zm-13.858-.081H379.6V63.978h5.535Zm-13.817-.095h-5.549V63.884h5.549Zm-13.858-.081h-5.535V63.694h5.535Zm-13.845-.095h-5.549V63.708h5.549Zm-13.858-.095h-5.535V63.613h5.535Zm-13.926-.081h-5.549V63.41h5.549Zm-13.8-.122h-5.535V63.41h5.535Zm-13.845,0h-5.549V63.247h5.549Zm-13.858-.095h-5.535V63.166h5.535Zm-13.845-.081h-5.549V63.234h5.549Zm-13.858-.095h-5.535V63.139h5.535Zm-13.844-.081h-5.549V62.9h5.549Zm-13.858-.095h-5.535V62.963h5.535Zm-13.844-.095h-5.549V62.8h5.535Zm-13.858-.081h-5.535V62.787h5.535ZM177.369,65.4h-5.549V62.693h5.535Zm-13.858-.081h-5.535V62.449h5.535Zm-13.844-.095h-5.549V62.449h5.535Zm-13.831-.135H130.3V62.381h5.535Zm-13.844-.095h-5.549V62.287h5.535Zm-13.858-.081H102.6V62.057h5.535Zm-13.872-.149H88.713V62.057h5.535Zm-13.912,0H74.936V61.921h5.549Z" transform="translate(22.503 21.85)"/><path class="b" d="M367.271,198.5a31.411,31.411,0,1,1-31.415-31.424A31.411,31.411,0,0,1,367.271,198.5Z" transform="translate(107.569 59.033)"/><circle class="b" cx="22.086" cy="22.086" r="22.086" transform="translate(236.344 24.685)"/><circle class="b" cx="22.086" cy="22.086" r="22.086" transform="translate(383.613 453.95) rotate(-89.27)"/><path class="b" d="M81.6,187.312A18.378,18.378,0,1,1,76.221,174.3,18.392,18.392,0,0,1,81.6,187.312Z" transform="translate(15.836 59.683)"/><path class="b" d="M62.579,260.691a7.524,7.524,0,1,1-7.511-7.511A7.524,7.524,0,0,1,62.579,260.691Z" transform="translate(16.793 89.455)"/><path class="b" d="M362.922,245.595a7.5,7.5,0,1,1-2.191-5.324,7.511,7.511,0,0,1,2.191,5.324Z" transform="translate(122.921 84.116)"/><path class="c" d="M424.644,89.912A88.832,88.832,0,1,1,335.812,1.08,88.832,88.832,0,0,1,424.644,89.912Z" transform="translate(87.264 0.382)"/><g transform="translate(364.922 27.354)"><path class="d" d="M388.987,69.863H353.435c0-.392-46.013-46.419-46.92-46.839.217-1.191-4.479-2.707-7.7-2.8-4.331,0-10.935-.379-13.872,3.546C281.8,27.95,285.2,33.62,286,38.005a11.273,11.273,0,0,0,.853,2.707,7.622,7.622,0,0,0,.8,1.353,7.159,7.159,0,0,0,1.218,1.164.715.715,0,0,1,.081.135,7.685,7.685,0,0,0,1.218,1.164,1.428,1.428,0,0,1,.095.149,6.687,6.687,0,0,0,1.218,1.164.121.121,0,0,0,.068.108l.23,2.4a8.7,8.7,0,0,0-4.06,1.353,10.014,10.014,0,0,0-2.3,4.263c-.284-.528-9.8-10.055-10.353-10.312a2.707,2.707,0,0,0-3.356-1.353,2.8,2.8,0,0,0-1.732,3.546s-.622,27.188-.149,36.228a237.269,237.269,0,0,0,4.764,35.295l16.944,16.957h.325v2.274h-6.767c-1.543,0-7.958,5.562-6.415,5.562l29.191,27.527A88.765,88.765,0,0,0,415.552,96.753Z" transform="translate(-269.649 -20.213)"/></g><path class="e" d="M286.266,42.879l7.714.744.853-4.385-9.2-1.719Z" transform="translate(100.92 13.257)"/><path class="f" d="M382.262,56.9H306.584l-17.9,24.143H400.167Z" transform="translate(101.998 20.104)"/><path class="a" d="M307.67,70.5h22.655l-.934-7.416H310.647Z" transform="translate(108.707 22.288)"/><path class="g" d="M310.478,52.518a18.012,18.012,0,0,1,1.15,2.422,20.2,20.2,0,0,1,.812,2.517c.2.866.284,1.759.514,2.612a18.271,18.271,0,0,0,.907,2.49c.379.812.717,1.638,1.015,2.463s.6,1.665.853,2.517a30.385,30.385,0,0,1,1.056,5.21h-.108a30.95,30.95,0,0,1-2.084-4.9c-.271-.839-.5-1.692-.731-2.558s-.42-1.719-.582-2.585a16.237,16.237,0,0,0-.663-2.571c-.3-.839-.731-1.624-1.056-2.45a18.713,18.713,0,0,1-.758-2.531,15.716,15.716,0,0,1-.433-2.707Z" transform="translate(109.661 18.532)"/><path class="e" d="M317.54,65.688a4.425,4.425,0,0,1-4.723,4.06h0a4.425,4.425,0,0,1-4.737-4.06v-.555a4.412,4.412,0,0,1,4.737-4.06h0a4.425,4.425,0,0,1,4.723,4.06Z" transform="translate(108.852 21.574)"/><path class="f" d="M313.752,104.614l-32.588-1.029s1.5-15.238,0-26.092c-1.353-9.825-5.955-39.246-5.955-39.246a2.788,2.788,0,1,0-5.264,1.813s-.623,27.188-.149,36.228a237.267,237.267,0,0,0,4.8,35.417h17.268v19.231H285.1c-1.543,0-7.958,5.562-6.415,5.562h32.575c1.543,0-4.723-5.562-6.266-5.562H297.4V111.706H314.05A2.774,2.774,0,0,0,316.838,109C316.879,107.416,315.282,104.614,313.752,104.614Z" transform="translate(95.263 12.8)"/><path class="h" d="M296.707,41.05s-9.69-.947-12.4,1.353-4.75,14.21-4.75,17.458-.271,26.918-.271,26.918h25.077s1.232-30.626.947-33.048C304.408,46.464,300.429,41.05,296.707,41.05Z" transform="translate(98.68 14.436)"/><path d="M306.439,102.69l-1.3,5.86h20.977l-1.123-2.923-8.526-1.448-1.259-1.489Z" transform="translate(107.813 36.283)"/><path class="i" d="M305.14,86.7l1.1,23.21,7.606-2.314V85.51Z" transform="translate(107.813 30.213)"/><path class="j" d="M293.685,49.4s1.759,11.53,6.185,14.738c4.06,2.923,20.043,1.989,20.043,1.989l-1.11,9.284s-20.489,1.353-25.9-2.233c-4.858-3.221-5.833-14.048-8.607-19.407C280.274,45.909,290.978,40.943,293.685,49.4Z" transform="translate(100.132 15.897)"/><path class="j" d="M279.654,74.74s-3.4,9.176,0,13.736c1.976,2.707,4.682,4.06,12.748,4.06s26.254-2.558,26.254-2.558l-1.123,27.066h12.072l3.153-32.683s0-7.335-13.371-7.606c-9.906-.217-16.524-.189-16.524-.189V74.74Z" transform="translate(98.275 26.407)"/><path class="k" d="M345.481,105.91c0,2.274-5.67,4.06-12.667,4.06s-12.654-1.827-12.654-4.06,5.67-4.06,12.654-4.06S345.481,103.65,345.481,105.91Z" transform="translate(113.12 35.986)"/><path d="M308.969,106.02l-1.3,5.846h20.977l-1.123-2.923L319,107.509l-1.259-1.489Z" transform="translate(108.707 37.459)"/><rect class="f" width="6.401" height="40.302" transform="translate(442.74 101.147)"/><path class="l" d="M288.545,32.511a5.291,5.291,0,0,1,3.762-3.952,27.757,27.757,0,0,1,5.968-.974c1.435-.135,2.923-.081,4.4-.135a8.12,8.12,0,0,1,.2-4.371c.379-1.191-4.439-2.815-7.714-2.856-4.331,0-10.935-.379-13.872,3.546-3.14,4.182.257,9.852,1.056,14.237a11.276,11.276,0,0,0,.853,2.707C286.448,39.507,287.517,35.407,288.545,32.511Z" transform="translate(98.925 7.142)"/><path class="e" d="M301.834,25.56c-1.475,0-2.964,0-4.4.135a27.756,27.756,0,0,0-5.968.974,5.291,5.291,0,0,0-3.762,3.952c-1.029,2.9-2.1,7-5.346,8.255a7.62,7.62,0,0,0,.8,1.353,11.165,11.165,0,0,0,4.913,3.153c5.833,2.179,13.98,2.111,14.508-.65.853-4.412,1.245-11.016-.365-15.726a12.705,12.705,0,0,1-.379-1.448Z" transform="translate(99.765 9.031)"/><path class="e" d="M297.041,29.68s2.869,4.222,2.571,5.129-1.529,2.707-2.571,1.516S297.041,29.68,297.041,29.68Z" transform="translate(104.788 10.487)"/><path class="f" d="M333.551,104.725c0,.433-1.435.785-3.207.785s-3.194-.352-3.194-.785,1.435-.785,3.194-.785S333.551,104.292,333.551,104.725Z" transform="translate(115.59 36.724)"/><path class="c" d="M177.664,88.832a88.639,88.639,0,1,0,0,.014Z"/><g transform="translate(46.784 14.508)"><path class="d" d="M165.45,85.045A88.738,88.738,0,0,0,125.243,10.72L107.649,28.313H34.57V143.346l31,29.773a90.534,90.534,0,0,0,11.07.7A88.816,88.816,0,0,0,165.45,85.058Z" transform="translate(-34.57 -10.72)"/></g><rect class="a" width="88.873" height="115.073" transform="translate(46.757 32.047)"/><rect class="j" width="67.057" height="2.625" transform="translate(57.936 50.032)"/><rect class="j" width="67.057" height="2.625" transform="translate(57.936 60.439)"/><rect class="j" width="67.057" height="2.625" transform="translate(57.936 70.819)"/><rect class="j" width="67.057" height="2.625" transform="translate(57.936 81.213)"/><rect class="j" width="67.057" height="2.625" transform="translate(57.936 91.606)"/><rect class="j" width="67.057" height="2.625" transform="translate(57.936 102)"/><rect class="j" width="67.057" height="2.625" transform="translate(57.936 112.38)"/><rect class="j" width="67.057" height="2.625" transform="translate(57.936 122.774)"/><rect class="j" width="67.057" height="2.625" transform="translate(57.936 133.167)"/><path class="m" d="M65.42,56.618l4.425,4.425,13.4-5.007L70.427,43.22Z" transform="translate(23.114 15.271)"/><path class="j" d="M63.48,60.171l7.051-2.625L66.105,53.12Z" transform="translate(22.429 18.769)"/><path class="j" d="M81.936,68.978l.108-.041,49.464-49.45-6.455-6.442L118.611,6.59,69.161,56.054l-.041.108Z" transform="translate(24.422 2.328)"/><path class="j" d="M125.715,13.68l3.262,3.262L79.445,66.473,76.17,63.212Z" transform="translate(26.913 4.833)"/><path class="j" d="M118.652,6.62l3.262,3.262L72.382,59.413,69.12,56.152Z" transform="translate(24.422 2.339)"/><path class="c" d="M358.987,278.4A133.248,133.248,0,1,1,225.806,145.17,133.251,133.251,0,0,1,358.987,278.4Z" transform="translate(32.679 51.292)"/><g transform="translate(173.996 245.682)"><path class="d" d="M346.239,265.554c0-3.329-.162-6.6-.406-9.879-18.243-18.3-64.445-64.486-65.041-64.96a17.892,17.892,0,0,0-1.962-1.962c-2.639-3.113-7.091-6.171-14.67-7.024l-.244-.189H149.208v44.037a4.765,4.765,0,0,1-.947-.474,3.086,3.086,0,0,0-4.94,1.353,5.779,5.779,0,0,1-5.738,3.356,3.072,3.072,0,0,0-3.6,3.64,5.792,5.792,0,0,1-3.3,5.779,3.072,3.072,0,0,0-1.353,4.94,5.779,5.779,0,0,1,0,6.645,3.086,3.086,0,0,0,1.353,4.953h.081a3.248,3.248,0,0,0,1.881,1.908h.068a3.072,3.072,0,0,0,.934,1.259,5.264,5.264,0,0,1,.406,2.477,3.031,3.031,0,0,0,2.071,3.478,2.883,2.883,0,0,0,1.962,1.976c0,.068.081.122.108.2v59.9l10.935,8.837V354.17h1.949v1.949l43.306,41.425A133.127,133.127,0,0,0,346.158,265.609Z" transform="translate(-128.569 -181.54)"/></g><path class="a" d="M277.122,354.126H143.82V181.51H258.528l18.595,14.738Z" transform="translate(50.815 64.132)"/><rect class="j" width="100.593" height="3.938" transform="translate(211.403 272.614)"/><rect class="j" width="100.593" height="3.938" transform="translate(211.403 288.217)"/><rect class="j" width="100.593" height="3.952" transform="translate(211.403 303.794)"/><rect class="j" width="100.593" height="3.938" transform="translate(211.403 319.384)"/><rect class="j" width="100.593" height="3.938" transform="translate(211.403 334.961)"/><rect class="j" width="100.593" height="3.938" transform="translate(211.403 350.551)"/><rect class="j" width="100.593" height="3.938" transform="translate(211.403 366.142)"/><rect class="j" width="100.593" height="3.938" transform="translate(211.403 381.732)"/><rect class="j" width="100.593" height="3.938" transform="translate(211.403 397.309)"/><path class="n" d="M227.41,181.51l5.806,16.321,14.372-1.583S245.883,182.593,227.41,181.51Z" transform="translate(80.349 64.132)"/><path class="o" d="M162.6,306.884l-13.438-10.921L135.74,306.884V238.23H162.6Z" transform="translate(47.96 84.172)"/><path class="p" d="M155.115,258.49a5.752,5.752,0,0,0-6.645,0,3.086,3.086,0,0,1-4.953-1.353,5.806,5.806,0,0,0-5.779-3.316,3.059,3.059,0,0,1-3.627-3.586,5.792,5.792,0,0,0-3.37-5.738,3.086,3.086,0,0,1-1.353-4.953,5.779,5.779,0,0,0,0-6.645,3.072,3.072,0,0,1,1.353-4.94,5.792,5.792,0,0,0,3.3-5.779,3.072,3.072,0,0,1,3.6-3.64,5.779,5.779,0,0,0,5.738-3.356,3.086,3.086,0,0,1,4.94-1.353,5.779,5.779,0,0,0,6.645,0,3.072,3.072,0,0,1,4.953,1.353,5.792,5.792,0,0,0,5.779,3.289,3.086,3.086,0,0,1,3.64,3.613,5.779,5.779,0,0,0,3.356,5.738,3.072,3.072,0,0,1,1.353,4.926,5.819,5.819,0,0,0,0,6.658,3.072,3.072,0,0,1-1.353,4.953,5.806,5.806,0,0,0-3.3,5.765,3.072,3.072,0,0,1-3.6,3.64,5.806,5.806,0,0,0-5.738,3.356,3.086,3.086,0,0,1-4.94,1.367Z" transform="translate(45.448 75.28)"/><path class="j" d="M145.649,246.332a14.792,14.792,0,0,0-5.968-3.41,14.887,14.887,0,0,0-3.451-5.914,15.063,15.063,0,0,0,0-6.861,14.7,14.7,0,0,0,3.4-5.968,15.279,15.279,0,0,0,5.9-3.451,15.494,15.494,0,0,0,3.37.379,15.1,15.1,0,0,0,3.492-.406,14.778,14.778,0,0,0,5.955,3.4,14.886,14.886,0,0,0,3.465,5.928,14.887,14.887,0,0,0,0,6.848,14.656,14.656,0,0,0-3.4,5.982,14.805,14.805,0,0,0-5.887,3.451,14.7,14.7,0,0,0-6.861,0Z" transform="translate(48.133 77.979)"/><path class="a" d="M147.78,224.46l3.262,4.046,4.858,1.854-2.842,4.358-.257,5.2-5.021-1.367-5.021,1.367-.257-5.2-2.842-4.358,4.858-1.854Z" transform="translate(49.345 79.307)"/></svg>